<svg width="20" height="20" viewBox="0 0 20 20" fill="none" xmlns="http://www.w3.org/2000/svg">
<path d="M18.9844 8.78906H17.8997V7.47656C17.8993 7.15552 17.7716 6.84773 17.5446 6.62071C17.3176 6.3937 17.0098 6.266 16.6887 6.26562H16.0097C15.9665 5.97915 15.8222 5.71761 15.6028 5.52843C15.3834 5.33924 15.1035 5.23492 14.8137 5.23438H13.8762C13.8403 5.23435 13.8048 5.24141 13.7716 5.25515C13.7384 5.26888 13.7082 5.28902 13.6829 5.31442C13.6575 5.33981 13.6373 5.36996 13.6236 5.40315C13.6098 5.43633 13.6028 5.4719 13.6028 5.50781V8.78906H6.39719V5.50781C6.39721 5.4719 6.39015 5.43633 6.37641 5.40315C6.36268 5.36996 6.34254 5.33981 6.31715 5.31442C6.29175 5.28902 6.2616 5.26888 6.22841 5.25515C6.19523 5.24141 6.15966 5.23435 6.12375 5.23438H5.18625C4.89654 5.23492 4.61662 5.33924 4.39722 5.52843C4.17782 5.71761 4.03346 5.97915 3.99031 6.26562H3.31125C2.9902 6.266 2.68241 6.3937 2.4554 6.62071C2.22838 6.84773 2.10068 7.15552 2.10031 7.47656V8.78906H1.01563C0.979711 8.78904 0.944145 8.7961 0.910961 8.80983C0.877777 8.82357 0.847625 8.84371 0.82223 8.8691C0.796835 8.8945 0.776694 8.92465 0.76296 8.95784C0.749226 8.99102 0.742167 9.02659 0.742188 9.0625V10.9375C0.742167 10.9734 0.749226 11.009 0.76296 11.0422C0.776694 11.0753 0.796835 11.1055 0.82223 11.1309C0.847625 11.1563 0.877777 11.1764 0.910961 11.1902C0.944145 11.2039 0.979711 11.211 1.01563 11.2109H2.10031V12.5234C2.10068 12.8445 2.22838 13.1523 2.4554 13.3793C2.68241 13.6063 2.9902 13.734 3.31125 13.7344H3.99031C4.03346 14.0209 4.17782 14.2824 4.39722 14.4716C4.61662 14.6608 4.89654 14.7651 5.18625 14.7656H6.12375C6.15966 14.7656 6.19523 14.7586 6.22841 14.7449C6.2616 14.7311 6.29175 14.711 6.31715 14.6856C6.34254 14.6602 6.36268 14.63 6.37641 14.5969C6.39015 14.5637 6.39721 14.5281 6.39719 14.4922V11.2109H13.6028V14.4922C13.6028 14.5281 13.6098 14.5637 13.6236 14.5969C13.6373 14.63 13.6575 14.6602 13.6829 14.6856C13.7082 14.711 13.7384 14.7311 13.7716 14.7449C13.8048 14.7586 13.8403 14.7656 13.8762 14.7656H14.8137C15.1035 14.7651 15.3834 14.6608 15.6028 14.4716C15.8222 14.2824 15.9665 14.0209 16.0097 13.7344H16.6887C17.0098 13.734 17.3176 13.6063 17.5446 13.3793C17.7716 13.1523 17.8993 12.8445 17.8997 12.5234V11.2109H18.9844C19.0203 11.211 19.0559 11.2039 19.089 11.1902C19.1222 11.1764 19.1524 11.1563 19.1778 11.1309C19.2032 11.1055 19.2233 11.0753 19.237 11.0422C19.2508 11.009 19.2578 10.9734 19.2578 10.9375V9.0625C19.2578 9.02659 19.2508 8.99102 19.237 8.95784C19.2233 8.92465 19.2032 8.8945 19.1778 8.8691C19.1524 8.84371 19.1222 8.82357 19.089 8.80983C19.0559 8.7961 19.0203 8.78904 18.9844 8.78906ZM1.28906 10.6641V9.33594H2.10031V10.6641H1.28906ZM2.64719 12.5234V7.47656C2.64739 7.30051 2.71742 7.13172 2.84192 7.00723C2.96641 6.88274 3.13519 6.81271 3.31125 6.8125H3.97531V13.1875H3.31125C3.13522 13.1873 2.96646 13.1173 2.84197 12.9928C2.71748 12.8684 2.64744 12.6996 2.64719 12.5236V12.5234ZM5.18625 14.2188C5.01019 14.2185 4.84141 14.1485 4.71692 14.024C4.59242 13.8995 4.52239 13.7307 4.52219 13.5547V6.44531C4.52239 6.26926 4.59242 6.10047 4.71692 5.97598C4.84141 5.85149 5.01019 5.78146 5.18625 5.78125H5.85031V9.05953V9.0625V9.06547V10.9345V10.9375V10.9405V14.2188H5.18625ZM6.39719 10.6641V9.33594H13.6028V10.6641H6.39719ZM15.4778 13.5547C15.4776 13.7307 15.4076 13.8995 15.2831 14.024C15.1586 14.1485 14.9898 14.2185 14.8137 14.2188H14.1497V10.9405V10.9375V10.9345V9.06547V9.0625V9.05953V5.78125H14.8137C14.9898 5.78146 15.1586 5.85149 15.2831 5.97598C15.4076 6.10047 15.4776 6.26926 15.4778 6.44531V13.5547ZM17.3528 12.5234C17.3526 12.6995 17.2826 12.8683 17.1581 12.9928C17.0336 13.1173 16.8648 13.1873 16.6887 13.1875H16.0247V6.8125H16.6887C16.8648 6.81271 17.0336 6.88274 17.1581 7.00723C17.2826 7.13172 17.3526 7.30051 17.3528 7.47656V12.5234ZM18.7109 10.6641H17.8997V9.33594H18.7109V10.6641Z" fill="#7B6F72"/>
</svg>
