<svg width="12" height="14" viewBox="0 0 12 14" fill="none" xmlns="http://www.w3.org/2000/svg">
<path d="M5.99917 14C2.97003 14 0.505615 11.5296 0.505615 8.49306C0.505615 6.13149 1.57886 4.02575 3.15462 2.29636C4.45063 0.873996 5.7333 0.0907615 5.78725 0.0581404C6.07157 -0.113852 6.45315 0.120484 6.45315 0.437398V4.20988L8.38321 2.4085C8.55075 2.25212 8.81598 2.26295 8.96957 2.43661C9.70312 3.26581 10.287 4.14144 10.7051 5.03921C13.0368 10.0465 9.82253 14 5.99917 14Z" fill="#FE4E33"/>
<path d="M10.705 5.03945C10.2869 4.14167 9.70298 3.26604 8.96943 2.43684C8.81584 2.26316 8.55061 2.25236 8.38307 2.40873L6.45302 4.21011V0.437633C6.45302 0.199031 6.23676 0.00732422 6.00854 0.000488281V14.0001C9.82772 13.9936 13.0347 10.0426 10.705 5.03945Z" fill="#FE1600"/>
<path d="M5.99908 14.0001C4.8479 14.0001 3.91138 13.0613 3.91138 11.9074C3.91138 10.0427 5.72176 8.93862 5.79881 8.89252C5.93389 8.81177 6.10301 8.81555 6.23437 8.90209C6.31 8.95197 8.08675 10.1437 8.08675 11.9074C8.08678 13.0613 7.15025 14.0001 5.99908 14.0001Z" fill="#FEC356"/>
<path d="M8.08673 11.9072C8.08673 10.1435 6.30996 8.95178 6.23435 8.9019C6.16594 8.85681 6.08729 8.83442 6.00854 8.83447V13.9997C7.15532 13.9945 8.08673 13.0579 8.08673 11.9072Z" fill="#FEB020"/>
</svg>
