<svg width="24" height="24" viewBox="0 0 24 24" fill="none" xmlns="http://www.w3.org/2000/svg">
<g id="Iconly/Light/Graph">
<g id="Graph">
<path id="Stroke 1" fill-rule="evenodd" clip-rule="evenodd" d="M17.2779 13.8894C17.9527 13.8894 18.519 14.4462 18.4158 15.1125C17.8106 19.0325 14.4548 21.9431 10.4074 21.9431C5.92952 21.9431 2.30005 18.3136 2.30005 13.8368C2.30005 10.1483 5.10215 6.71255 8.25689 5.9357C8.93479 5.76834 9.62952 6.24518 9.62952 6.94307C9.62952 11.6715 9.78847 12.8947 10.6864 13.5599C11.5843 14.2252 12.64 13.8894 17.2779 13.8894Z" stroke="#130F26" stroke-width="1.5" stroke-linecap="round" stroke-linejoin="round"/>
<path id="Stroke 3" fill-rule="evenodd" clip-rule="evenodd" d="M21.6926 9.9517C21.7463 6.9138 18.0147 2.01696 13.4674 2.10117C13.1137 2.10749 12.8305 2.40222 12.8147 2.75485C12.7 5.25275 12.8547 8.48959 12.9411 9.95696C12.9674 10.4138 13.3263 10.7727 13.7821 10.7991C15.2905 10.8854 18.6453 11.0033 21.1074 10.6306C21.4421 10.5801 21.6874 10.2896 21.6926 9.9517Z" stroke="#130F26" stroke-width="1.5" stroke-linecap="round" stroke-linejoin="round"/>
</g>
</g>
</svg>
