<svg width="20" height="20" viewBox="0 0 20 20" fill="none" xmlns="http://www.w3.org/2000/svg">
<path d="M18.8358 14.62L15.7609 12.8447C15.1402 12.4864 14.3613 12.9349 14.3613 13.6528V14.7304H5.90066C3.41641 14.7304 1.39531 12.7093 1.39531 10.225C1.39531 9.83969 1.08293 9.52734 0.697656 9.52734C0.312344 9.52734 0 9.83973 0 10.225C0 13.4787 2.64707 16.1257 5.9007 16.1257H14.3613V17.2033C14.3613 17.92 15.1391 18.3704 15.7609 18.0114L18.8357 16.2361C19.4564 15.8778 19.4575 14.979 18.8358 14.62Z" fill="#7B6F72"/>
<path d="M14.099 3.87462H5.63836V2.79697C5.63836 2.08029 4.86051 1.62993 4.23879 1.98892L1.16391 3.76419C0.543242 4.12251 0.542149 5.0213 1.16391 5.38029L4.23879 7.1556C4.85949 7.51396 5.63836 7.0654 5.63836 6.34755V5.26993H14.099C16.5833 5.26993 18.6044 7.29099 18.6044 9.77529C18.6044 10.1606 18.9168 10.4729 19.302 10.4729C19.6873 10.4729 19.9997 10.1606 19.9997 9.77529C19.9997 6.52165 17.3527 3.87462 14.099 3.87462Z" fill="#7B6F72"/>
</svg>
