<svg width="30" height="30" viewBox="0 0 30 30" fill="none" xmlns="http://www.w3.org/2000/svg">
<g clip-path="url(#clip0_430_767)">
<path d="M24.3238 26.9589L22.5988 23.8379L20.3459 24.8884L21.9062 29.1054C22.2657 29.8764 23.1875 30.2173 23.9649 29.8547C24.7402 29.4932 25.0757 28.5715 24.7142 27.7961L24.3238 26.9589Z" fill="#BFBFBF"/>
<path d="M7.57762 23.9204L5.67526 26.9588L5.28491 27.7959C4.92333 28.5713 5.25884 29.493 6.03421 29.8545C6.80073 30.2122 7.72809 29.8875 8.09284 29.1052L9.51039 24.8216L7.57762 23.9204Z" fill="#BFBFBF"/>
<path d="M5.67529 26.9587C6.3793 27.7802 7.18988 28.5075 8.08578 29.1194C8.08806 29.1146 8.09058 29.11 8.09287 29.1052L9.98673 25.0437L7.17881 23.7344L5.67529 26.9587Z" fill="#ACACAC"/>
<path d="M24.3241 26.9587L22.8206 23.7344L20.0127 25.0437L21.9066 29.1052C21.9088 29.1101 21.9114 29.1146 21.9137 29.1194C22.8096 28.5076 23.6201 27.7803 24.3241 26.9587V26.9587Z" fill="#ACACAC"/>
<path d="M6.30748 7.53033L5.78306 7.20215L4.77197 8.21318L5.09793 8.74006L7.92132 11.5634L9.13093 10.3538L6.30748 7.53033Z" fill="#ACACAC"/>
<path d="M2.97681 6.62012L4.18628 5.41065L6.30587 7.53024L5.0964 8.7397L2.97681 6.62012Z" fill="#9C9C9C"/>
<path d="M2.00302 4.55529C0.81456 5.80802 0.833662 7.78667 2.06202 9.01503L2.58403 9.53704C2.72718 9.68018 2.95927 9.68018 3.10247 9.53704L6.98478 5.65468C7.12792 5.51154 7.12792 5.27939 6.98478 5.13625L6.46276 4.61424C5.23435 3.38588 3.25575 3.36684 2.00302 4.55529V4.55529Z" fill="#EB5569"/>
<path d="M25.3625 8.00338L24.3787 7.01953L23.6063 7.61596L20.8684 10.3537L22.078 11.5634L24.8159 8.82556L25.3625 8.00338Z" fill="#ACACAC"/>
<path d="M16.2068 4.11203V1.51709H13.7923V4.11203H13.7166V10.2538H16.2826V4.11203H16.2068Z" fill="#ACACAC"/>
<path d="M13.7166 1.85938H16.2826V4.11207H13.7166V1.85938Z" fill="#9C9C9C"/>
<path d="M18.647 1.54266C18.647 0.690703 17.9563 0 17.1043 0H12.7238C11.8718 0 11.1812 0.690703 11.1812 1.54266C11.1812 2.39467 11.8719 3.08531 12.7238 3.08531H17.1043C17.9563 3.08531 18.647 2.39467 18.647 1.54266Z" fill="#EB5569"/>
<path d="M23.6028 7.61768L25.8079 5.41254L27.0174 6.62201L24.8122 8.82714L23.6028 7.61768Z" fill="#9C9C9C"/>
<path d="M17.2755 0H15.5645C16.4165 0 17.1071 0.690703 17.1071 1.54266C17.1071 2.39467 16.4164 3.08531 15.5645 3.08531H17.2755C18.1275 3.08531 18.8182 2.39467 18.8182 1.54266C18.8182 0.690703 18.1275 0 17.2755 0Z" fill="#E53950"/>
<path d="M27.8755 4.43517C26.6228 3.24672 24.6441 3.26576 23.4157 4.49412L22.8937 5.01613C22.7506 5.15927 22.7506 5.39142 22.8937 5.53457L26.7761 9.41692C26.9192 9.56007 27.1513 9.56007 27.2945 9.41692L27.8165 8.89491C29.0449 7.66656 29.0639 5.68791 27.8755 4.43517V4.43517Z" fill="#EB5569"/>
<path d="M27.9376 4.49416C27.7279 4.28451 27.4961 4.11096 27.2501 3.97168C27.9403 5.19107 27.7666 6.76695 26.7276 7.806L26.2056 8.32801C26.0624 8.47115 25.8305 8.47115 25.6873 8.32813L26.897 9.53791C27.0402 9.68106 27.2723 9.68106 27.4155 9.53791L27.9375 9.0159C29.1862 7.76727 29.1862 5.74279 27.9376 4.49416V4.49416Z" fill="#E53950"/>
<path d="M6.58371 4.49311C5.33508 3.24448 3.31061 3.24448 2.06197 4.49311C1.85238 4.7027 1.67877 4.93456 1.53955 5.18059C2.75895 4.49042 4.33482 4.66403 5.37381 5.70301L5.89582 6.22503C6.03896 6.36817 6.03896 6.60032 5.89582 6.74346L3.1023 9.53697C3.10236 9.53691 3.10236 9.53691 3.10242 9.53691L7.10572 5.53356C7.24887 5.39042 7.24887 5.15827 7.10572 5.01512L6.58371 4.49311Z" fill="#E53950"/>
<path d="M14.9998 29.5401C21.7791 29.5401 27.2749 24.0443 27.2749 17.2649C27.2749 10.4855 21.7791 4.98975 14.9998 4.98975C8.22038 4.98975 2.72461 10.4855 2.72461 17.2649C2.72461 24.0443 8.22038 29.5401 14.9998 29.5401Z" fill="#EB5569"/>
<path d="M14.9996 4.98975C14.7162 4.98975 14.4353 5.00023 14.1567 5.0191C20.5429 5.45223 25.5891 10.7688 25.5891 17.2649C25.5891 23.761 20.5429 29.0775 14.1567 29.5107C14.4353 29.5296 14.7162 29.5401 14.9996 29.5401C21.7789 29.5401 27.2747 24.0443 27.2747 17.2649C27.2747 10.4855 21.7789 4.98975 14.9996 4.98975V4.98975Z" fill="#E53950"/>
<path d="M14.9996 27.402C20.598 27.402 25.1363 22.8636 25.1363 17.2652C25.1363 11.6668 20.598 7.12842 14.9996 7.12842C9.40118 7.12842 4.86279 11.6668 4.86279 17.2652C4.86279 22.8636 9.40118 27.402 14.9996 27.402Z" fill="#E8EDF2"/>
<path d="M14.9994 7.12842C14.6821 7.12842 14.3683 7.14383 14.0583 7.17254C19.2082 7.64891 23.2541 11.9931 23.2541 17.2653C23.2541 22.5373 19.2082 26.8815 14.0583 27.358C14.3683 27.3866 14.6821 27.402 14.9994 27.402C20.5889 27.402 25.1362 22.8547 25.1362 17.2653C25.1362 11.6758 20.5889 7.12842 14.9994 7.12842Z" fill="#D9E7EC"/>
<path d="M15.0455 16.9842C14.7954 16.9842 14.5928 16.7815 14.5928 16.5315V11.7813C14.5928 11.5313 14.7954 11.3286 15.0455 11.3286C15.2955 11.3286 15.4982 11.5313 15.4982 11.7813V16.5315C15.4982 16.7815 15.2955 16.9842 15.0455 16.9842Z" fill="#838383"/>
<path d="M18.6409 17.7174H15.3875C15.1375 17.7174 14.9348 17.5147 14.9348 17.2647C14.9348 17.0147 15.1375 16.812 15.3875 16.812H18.6409C18.8909 16.812 19.0936 17.0147 19.0936 17.2647C19.0936 17.5147 18.8909 17.7174 18.6409 17.7174Z" fill="#9C9C9C"/>
<path d="M15.0456 18.8836C15.9398 18.8836 16.6646 18.1588 16.6646 17.2646C16.6646 16.3704 15.9398 15.6455 15.0456 15.6455C14.1514 15.6455 13.4265 16.3704 13.4265 17.2646C13.4265 18.1588 14.1514 18.8836 15.0456 18.8836Z" fill="#FBC56D"/>
<path d="M4.8734 17.7174H7.2144C7.46442 17.7174 7.66709 17.5147 7.66709 17.2647C7.66709 17.0147 7.46442 16.812 7.2144 16.812H4.8734C4.86678 16.9622 4.86279 17.113 4.86279 17.2647C4.86279 17.4165 4.86678 17.5673 4.8734 17.7174Z" fill="#ACACAC"/>
<path d="M14.9998 24.5977C14.7498 24.5977 14.5471 24.8003 14.5471 25.0504V27.3913C14.6972 27.398 14.8481 27.402 14.9998 27.402C15.1516 27.402 15.3024 27.398 15.4525 27.3913V25.0504C15.4526 24.8003 15.2498 24.5977 14.9998 24.5977V24.5977Z" fill="#ACACAC"/>
<path d="M14.9998 7.12842C14.8481 7.12842 14.6972 7.1324 14.5471 7.13902V9.48009C14.5471 9.73011 14.7498 9.93278 14.9998 9.93278C15.2498 9.93278 15.4525 9.73011 15.4525 9.48009V7.13902C15.3024 7.1324 15.1516 7.12842 14.9998 7.12842V7.12842Z" fill="#ACACAC"/>
<path d="M15.0451 15.6455C14.7686 15.6455 14.5057 15.7192 14.2751 15.8475C14.7763 16.1263 15.1242 16.6635 15.1242 17.2645C15.1242 17.8656 14.7764 18.4027 14.2751 18.6815C14.5057 18.8098 14.7686 18.8835 15.0451 18.8835C15.9227 18.8835 16.6642 18.1421 16.6642 17.2645C16.6642 16.3869 15.9227 15.6455 15.0451 15.6455V15.6455Z" fill="#E9B665"/>
<path d="M25.1257 16.812H22.7847C22.5347 16.812 22.332 17.0147 22.332 17.2647C22.332 17.5148 22.5347 17.7174 22.7847 17.7174H25.1257C25.1323 17.5673 25.1363 17.4165 25.1363 17.2647C25.1363 17.113 25.1323 16.9622 25.1257 16.812Z" fill="#ACACAC"/>
<path d="M25.1335 17.0351C25.1317 16.9605 25.1291 16.8863 25.1258 16.8121V16.812H23.2439C23.2505 16.9621 23.2543 17.113 23.2543 17.2648C23.2543 17.4165 23.2505 17.5673 23.2439 17.7175H25.1258C25.1291 17.6433 25.1317 17.5689 25.1335 17.4944C25.1352 17.4183 25.1364 17.3421 25.1364 17.2656C25.1364 17.2654 25.1364 17.2651 25.1364 17.2648C25.1364 17.188 25.1353 17.1115 25.1335 17.0351Z" fill="#9C9C9C"/>
<path d="M14.9994 27.8542C9.1604 27.8542 4.40991 23.1038 4.40991 17.2648C4.40991 11.4257 9.16034 6.67529 14.9994 6.67529C20.8385 6.67529 25.589 11.4257 25.589 17.2648C25.589 23.1039 20.8385 27.8542 14.9994 27.8542V27.8542ZM14.9994 7.58068C9.65962 7.58068 5.31536 11.9249 5.31536 17.2648C5.31536 22.6045 9.65962 26.9488 14.9994 26.9488C20.3393 26.9488 24.6835 22.6045 24.6835 17.2648C24.6835 11.9249 20.3393 7.58068 14.9994 7.58068V7.58068Z" fill="#F58A97"/>
</g>
<defs>
<clipPath id="clip0_430_767">
<rect width="30" height="30" fill="white"/>
</clipPath>
</defs>
</svg>
