<svg width="30" height="30" viewBox="0 0 30 30" fill="none" xmlns="http://www.w3.org/2000/svg">
<path d="M19.9514 20.5806L18.0793 20.7099V29.5509L18.0798 29.5508C18.0854 29.6697 18.1604 29.7825 18.3078 29.8677C18.6462 30.0631 19.2373 30.0386 19.6282 29.8129C19.8291 29.6969 19.9372 29.5503 19.9495 29.4086L19.9514 29.4085V20.5806Z" fill="url(#paint0_linear_430_764)"/>
<path d="M28.8325 15.4893L26.9604 15.6186V24.4596L26.9609 24.4596C26.9665 24.5785 27.0415 24.6913 27.189 24.7763C27.5274 24.9717 28.1185 24.9472 28.5093 24.7216C28.7103 24.6056 28.8184 24.459 28.8306 24.3173L28.8326 24.3171V15.4893H28.8325Z" fill="url(#paint1_linear_430_764)"/>
<path d="M11.3138 1.0035L11.3146 1.00239L9.79293 0.128172L9.79211 0.129344C9.56547 -0.021301 9.26125 -0.0531174 8.99201 0.102332L1.05379 4.66028C0.487481 4.98723 0.138672 5.59139 0.138672 6.2453V18.957C0.138672 19.2532 0.301504 19.4927 0.527676 19.6193L0.527441 19.6196L2.11264 20.5304L11.3141 1.00362C11.314 1.00356 11.314 1.00356 11.3138 1.0035V1.0035Z" fill="url(#paint2_linear_430_764)"/>
<path d="M1.73999 19.8775V7.16575C1.73999 6.51191 2.0888 5.90769 2.65511 5.58073L10.5933 1.02278C11.0996 0.730519 11.7325 1.09585 11.7325 1.68044V14.3921C11.7325 15.046 11.3836 15.6502 10.8173 15.9771L2.87911 20.5351C2.37286 20.8274 1.73999 20.4621 1.73999 19.8775V19.8775Z" fill="url(#paint3_linear_430_764)"/>
<path d="M28.6601 18.5669L12.0729 8.99025C11.7425 8.79947 11.3355 8.79947 11.0051 8.99025L1.91261 14.2145C1.79753 14.281 1.73999 14.3972 1.73999 14.5135V18.4648C1.73999 18.581 1.79753 18.6973 1.91261 18.7638L18.4999 28.3404C18.8302 28.5311 19.2373 28.5311 19.5677 28.3404L28.6601 23.1161C28.7769 23.0487 28.8341 22.9299 28.8325 22.812H28.8327V18.8704H28.8325C28.8339 18.7526 28.7767 18.6342 28.6601 18.5669V18.5669Z" fill="url(#paint4_linear_430_764)"/>
<path d="M18.4998 24.3911L1.91261 14.8145C1.68245 14.6816 1.68245 14.3493 1.91261 14.2164L11.0051 8.99216C11.3354 8.80144 11.7425 8.80144 12.0728 8.99216L28.6601 18.5688C28.8902 18.7017 28.8902 19.0339 28.6601 19.1668L19.5677 24.3911C19.2373 24.5819 18.8302 24.5819 18.4998 24.3911V24.3911Z" fill="#D7D1EB"/>
<path d="M28.8325 14.9193L1.73999 10.5625V14.5137C1.73999 14.63 1.79753 14.7463 1.91261 14.8127L18.4999 24.3893C18.8302 24.58 19.2373 24.58 19.5677 24.3893L28.6601 19.165C28.7769 19.0976 28.8341 18.9788 28.8325 18.8609H28.8327V14.9193H28.8325Z" fill="url(#paint5_linear_430_764)"/>
<path d="M18.4998 20.4379L1.91261 10.8613C1.68245 10.7284 1.68245 10.3962 1.91261 10.2633L11.0051 5.03904C11.3354 4.84832 11.7425 4.84832 12.0728 5.03904L28.6601 14.6157C28.8902 14.7486 28.8902 15.0808 28.6601 15.2137L19.5676 20.4379C19.2373 20.6287 18.8302 20.6287 18.4998 20.4379Z" fill="#D7D1EB"/>
<path d="M13.1197 7.08573C13.0693 7.04208 13.0112 7.00851 12.9482 6.98671L9.66527 5.09126C9.50877 4.95257 9.27193 4.9098 9.06551 5.02898L4.52156 7.65239C4.06225 7.91759 3.7793 8.4076 3.7793 8.93799C3.7793 9.14477 3.89648 9.3103 4.05697 9.39397L7.4625 11.3602C7.61672 11.4655 7.82578 11.4888 8.01047 11.3821L12.5544 8.7587C13.0137 8.4935 13.2967 8.00343 13.2967 7.47309C13.2967 7.31284 13.226 7.17772 13.1197 7.08573V7.08573Z" fill="url(#paint6_linear_430_764)"/>
<path d="M7.9803 9.65019L12.5242 7.02677C12.8675 6.82861 13.2966 7.07634 13.2966 7.47273C13.2966 8.00312 13.0137 8.4932 12.5544 8.75833L8.01042 11.3818C7.66712 11.5799 7.23804 11.3322 7.23804 10.9358C7.23804 10.4055 7.52099 9.91538 7.9803 9.65019V9.65019Z" fill="url(#paint7_linear_430_764)"/>
<path d="M5.95825 15.0702L18.9182 27.0318L29.8608 17.1287C29.8608 15.2666 28.8674 13.5459 27.2547 12.6149L17.8336 7.17563C16.8946 6.63352 15.7377 6.63352 14.7987 7.17563L8.56023 10.7522C7.00438 11.6505 6.02517 13.284 5.95825 15.0702V15.0702Z" fill="#E9E5F6"/>
<path d="M15.7741 17.9257L7.80408 13.3243C7.23965 12.9984 6.5783 13.176 6.21924 13.6266L8.58689 21.0653L8.58572 21.0658L18.9183 27.0313V23.3717C18.9183 21.125 17.7197 19.049 15.7741 17.9257V17.9257Z" fill="url(#paint8_linear_430_764)"/>
<path d="M22.2254 17.9737L26.94 15.6811C28.2623 14.9741 29.861 15.9323 29.861 17.4317V20.7393L18.9185 27.0318V23.4914C18.9185 21.1829 20.1896 19.062 22.2254 17.9737V17.9737Z" fill="url(#paint9_linear_430_764)"/>
<path d="M17.8338 7.17567C16.8948 6.6335 15.7379 6.6335 14.7989 7.17567L8.56041 10.7522C7.43752 11.4005 6.61533 12.4319 6.21924 13.6271L9.28475 14.1796C9.73469 13.4 10.3864 12.7367 11.193 12.271L17.4314 8.69442C18.3619 8.15723 19.5061 8.15313 20.4405 8.68059L17.8338 7.17567Z" fill="#F2EDFF"/>
<path d="M8.58691 21.0653V16.7843C8.58691 15.8536 8.83511 14.9583 9.28476 14.1792L7.8041 13.3243C7.23966 12.9984 6.57831 13.176 6.21925 13.6266C6.19851 13.6891 5.95435 14.4065 5.95435 15.2655V19.5465L8.58691 21.0653Z" fill="#E9E5F6"/>
<defs>
<linearGradient id="paint0_linear_430_764" x1="18.1802" y1="25.2901" x2="19.9268" y2="25.2901" gradientUnits="userSpaceOnUse">
<stop stop-color="#8B451C"/>
<stop offset="1" stop-color="#BF942A"/>
</linearGradient>
<linearGradient id="paint1_linear_430_764" x1="26.9604" y1="20.1988" x2="28.8325" y2="20.1988" gradientUnits="userSpaceOnUse">
<stop stop-color="#8B451C"/>
<stop offset="1" stop-color="#BF942A"/>
</linearGradient>
<linearGradient id="paint2_linear_430_764" x1="3.77359" y1="8.55624" x2="4.59309" y2="7.13692" gradientUnits="userSpaceOnUse">
<stop stop-color="#252336"/>
<stop offset="1" stop-color="#594A8E"/>
</linearGradient>
<linearGradient id="paint3_linear_430_764" x1="6.73622" y1="14.6954" x2="6.73622" y2="6.04755" gradientUnits="userSpaceOnUse">
<stop stop-color="#594A8E"/>
<stop offset="1" stop-color="#7662BD"/>
</linearGradient>
<linearGradient id="paint4_linear_430_764" x1="18.1804" y1="18.6653" x2="19.927" y2="18.6653" gradientUnits="userSpaceOnUse">
<stop stop-color="#8B451C"/>
<stop offset="1" stop-color="#BF942A"/>
</linearGradient>
<linearGradient id="paint5_linear_430_764" x1="15.6595" y1="17.5474" x2="17.2755" y2="17.5474" gradientUnits="userSpaceOnUse">
<stop stop-color="#C5BAEB"/>
<stop offset="1" stop-color="#E9E5F6"/>
</linearGradient>
<linearGradient id="paint6_linear_430_764" x1="6.59432" y1="11.5721" x2="7.76496" y2="9.54444" gradientUnits="userSpaceOnUse">
<stop stop-color="#C5BAEB"/>
<stop offset="1" stop-color="#E9E5F6"/>
</linearGradient>
<linearGradient id="paint7_linear_430_764" x1="7.23804" y1="9.20429" x2="13.2966" y2="9.20429" gradientUnits="userSpaceOnUse">
<stop stop-color="#C5BAEB"/>
<stop offset="1" stop-color="#E9E5F6"/>
</linearGradient>
<linearGradient id="paint8_linear_430_764" x1="8.25396" y1="17.2291" x2="18.4065" y2="23.0906" gradientUnits="userSpaceOnUse">
<stop stop-color="#D7D1EB"/>
<stop offset="1" stop-color="#E7E3F3"/>
</linearGradient>
<linearGradient id="paint9_linear_430_764" x1="19.3797" y1="23.2017" x2="29.4335" y2="17.3972" gradientUnits="userSpaceOnUse">
<stop stop-color="#D7D1EB"/>
<stop offset="1" stop-color="#E7E3F3"/>
</linearGradient>
</defs>
</svg>
