<svg width="20" height="20" viewBox="0 0 20 20" fill="none" xmlns="http://www.w3.org/2000/svg">
<path d="M19.375 13.4375H19.0625V10.9375C19.0621 10.6061 18.9302 10.2884 18.6959 10.0541C18.4616 9.81977 18.1439 9.68793 17.8125 9.6875V4.375C17.8121 4.04361 17.6802 3.72592 17.4459 3.4916C17.2116 3.25727 16.8939 3.12543 16.5625 3.125H3.4375C3.10611 3.12543 2.78842 3.25727 2.5541 3.4916C2.31977 3.72592 2.18793 4.04361 2.1875 4.375V9.6875C1.85611 9.68793 1.53842 9.81977 1.3041 10.0541C1.06977 10.2884 0.937934 10.6061 0.9375 10.9375V13.4375H0.625C0.54212 13.4375 0.462634 13.4704 0.404029 13.529C0.345424 13.5876 0.3125 13.6671 0.3125 13.75V15C0.3125 15.0829 0.345424 15.1624 0.404029 15.221C0.462634 15.2796 0.54212 15.3125 0.625 15.3125H0.9375V16.5625C0.9375 16.6454 0.970424 16.7249 1.02903 16.7835C1.08763 16.8421 1.16712 16.875 1.25 16.875H2.1875C2.25973 16.875 2.32973 16.85 2.38557 16.8042C2.44142 16.7584 2.47965 16.6947 2.49375 16.6238L2.75625 15.3125H17.2437L17.5063 16.6238C17.5204 16.6947 17.5586 16.7584 17.6144 16.8042C17.6703 16.85 17.7403 16.875 17.8125 16.875H18.75C18.8329 16.875 18.9124 16.8421 18.971 16.7835C19.0296 16.7249 19.0625 16.6454 19.0625 16.5625V15.3125H19.375C19.4579 15.3125 19.5374 15.2796 19.596 15.221C19.6546 15.1624 19.6875 15.0829 19.6875 15V13.75C19.6875 13.6671 19.6546 13.5876 19.596 13.529C19.5374 13.4704 19.4579 13.4375 19.375 13.4375ZM2.8125 4.375C2.81272 4.20931 2.87863 4.05046 2.9958 3.9333C3.11296 3.81613 3.27181 3.75022 3.4375 3.75H16.5625C16.7282 3.75022 16.887 3.81613 17.0042 3.9333C17.1214 4.05046 17.1873 4.20931 17.1875 4.375V9.6875H16.5625V8.4375C16.5621 8.10611 16.4302 7.78842 16.1959 7.5541C15.9616 7.31977 15.6439 7.18793 15.3125 7.1875H11.5625C11.2311 7.18793 10.9134 7.31977 10.6791 7.5541C10.4448 7.78842 10.3129 8.10611 10.3125 8.4375V9.6875H9.6875V8.4375C9.68707 8.10611 9.55523 7.78842 9.3209 7.5541C9.08658 7.31977 8.76889 7.18793 8.4375 7.1875H4.6875C4.35611 7.18793 4.03842 7.31977 3.8041 7.5541C3.56977 7.78842 3.43793 8.10611 3.4375 8.4375V9.6875H2.8125V4.375ZM15.9375 8.4375V9.6875H10.9375V8.4375C10.9377 8.27181 11.0036 8.11296 11.1208 7.9958C11.238 7.87863 11.3968 7.81272 11.5625 7.8125H15.3125C15.4782 7.81272 15.637 7.87863 15.7542 7.9958C15.8714 8.11296 15.9373 8.27181 15.9375 8.4375ZM9.0625 8.4375V9.6875H4.0625V8.4375C4.06272 8.27181 4.12863 8.11296 4.2458 7.9958C4.36296 7.87863 4.52181 7.81272 4.6875 7.8125H8.4375C8.60319 7.81272 8.76204 7.87863 8.8792 7.9958C8.99637 8.11296 9.06228 8.27181 9.0625 8.4375ZM1.5625 10.9375C1.56272 10.7718 1.62863 10.613 1.7458 10.4958C1.86296 10.3786 2.02181 10.3127 2.1875 10.3125H17.8125C17.9782 10.3127 18.137 10.3786 18.2542 10.4958C18.3714 10.613 18.4373 10.7718 18.4375 10.9375V13.4375H1.5625V10.9375ZM1.93125 16.25H1.5625V15.3125H2.11875L1.93125 16.25ZM18.4375 16.25H18.0688L17.8813 15.3125H18.4375V16.25ZM19.0625 14.6875H0.9375V14.0625H19.0625V14.6875Z" fill="#7B6F72"/>
</svg>
